<?xml version="1.0" standalone="no"?>
<!DOCTYPE svg PUBLIC "-//W3C//DTD SVG 20010904//EN"
 "http://www.w3.org/TR/2001/REC-SVG-20010904/DTD/svg10.dtd">
<svg xmlns="http://www.w3.org/2000/svg"
  width="28" height="28" viewBox="0 0 1024 1024"
  fill="currentColor">

<g transform="translate(0.000000,1024.000000) scale(0.100000,-0.100000)"
fill="#000000" stroke="none">
<path d="M7378 8792 c-20 -11 -65 -44 -100 -75 -200 -175 -506 -359 -878 -526
l-114 -52 -80 37 c-170 77 -444 154 -676 189 -233 35 -580 36 -808 1 -242 -37
-496 -109 -671 -192 l-94 -44 -271 134 c-287 143 -477 257 -646 391 -169 133
-187 145 -235 145 -52 0 -103 -32 -128 -80 -23 -43 -19 -145 13 -329 55 -322
154 -613 275 -807 l45 -71 -49 -74 c-183 -275 -284 -648 -268 -989 11 -231 63
-428 166 -626 l57 -110 -63 -74 c-137 -159 -238 -330 -326 -550 -121 -302
-199 -626 -247 -1020 -29 -248 -38 -378 -55 -805 -19 -492 -34 -789 -46 -885
-27 -221 -25 -234 34 -270 60 -37 109 -28 263 49 77 38 179 94 228 125 l88 56
87 -64 c180 -134 330 -218 513 -290 180 -71 315 -101 588 -132 l55 -6 17 -56
c10 -32 26 -71 37 -88 67 -109 215 -126 294 -34 l32 38 33 -38 c38 -46 87 -64
154 -58 79 8 156 83 181 175 l11 43 126 0 c69 0 215 3 325 6 l200 7 17 -59
c42 -146 178 -217 285 -148 22 15 48 40 57 56 l18 29 39 -45 c137 -156 349
-17 349 228 0 34 -4 75 -9 93 -9 31 -9 32 62 74 545 321 989 850 1231 1463
144 364 212 815 176 1166 -38 360 -129 626 -287 834 -38 49 -72 95 -78 102 -6
9 0 28 19 61 96 168 169 362 202 538 28 149 26 450 -4 600 -43 215 -135 445
-242 599 l-51 74 34 53 c55 87 123 228 160 336 78 224 145 530 153 703 5 94 3
108 -15 137 -42 66 -118 89 -183 55z m-98 -495 c-53 -248 -174 -535 -270 -641
-57 -64 -70 -87 -70 -129 0 -46 6 -57 70 -141 190 -253 290 -565 291 -916 0
-265 -75 -499 -237 -739 -69 -101 -78 -135 -49 -191 9 -17 33 -39 54 -49 48
-25 136 -140 202 -265 59 -112 122 -298 144 -426 71 -414 -16 -922 -240 -1397
-206 -436 -581 -850 -998 -1102 l-106 -63 -28 20 c-41 29 -96 50 -163 62 -151
27 -315 -51 -392 -187 l-30 -53 -86 0 c-48 0 -198 -3 -333 -7 l-246 -6 -33 62
c-55 103 -145 167 -269 192 -151 29 -328 -52 -408 -188 -28 -48 -23 -47 -161
-32 -117 13 -239 39 -347 74 -162 53 -434 202 -554 303 l-35 29 87 89 c150
155 286 336 440 585 305 495 413 1031 306 1528 -69 319 -231 608 -523 936
-189 212 -273 359 -334 583 -23 87 -26 114 -26 272 1 153 4 190 28 297 60 271
153 474 296 644 32 37 47 91 36 133 -3 13 -28 51 -56 83 -85 100 -204 350
-260 549 -26 90 -50 197 -45 202 1 2 40 -21 86 -51 153 -100 351 -209 624
-344 326 -161 310 -158 477 -78 206 99 439 165 708 201 168 22 533 14 695 -14
227 -41 429 -103 626 -193 91 -42 118 -50 148 -45 79 12 772 375 936 490 33
23 62 39 63 34 2 -5 -6 -54 -18 -111z m-4142 -2849 c237 -247 404 -559 459
-858 25 -138 23 -406 -5 -560 -54 -296 -152 -532 -337 -810 -155 -233 -353
-451 -551 -606 -101 -79 -254 -184 -269 -184 -7 0 -7 50 1 173 7 94 17 300 23
457 29 733 62 1074 142 1459 70 335 200 647 358 856 45 59 110 135 116 135 2
0 30 -28 63 -62z"/>
<path d="M3949 7106 c-82 -23 -143 -59 -205 -121 -96 -94 -144 -206 -144 -335
0 -189 105 -356 275 -437 133 -63 301 -57 424 14 106 62 196 175 226 286 24
88 17 230 -14 309 -46 118 -152 224 -268 268 -72 28 -225 36 -294 16z"/>
<path d="M6041 7104 c-129 -34 -237 -127 -298 -253 -34 -69 -37 -85 -41 -181
-3 -89 -1 -115 17 -169 69 -203 245 -331 456 -331 238 0 434 170 468 405 34
237 -121 468 -357 531 -65 18 -176 17 -245 -2z"/>
<path d="M5061 6433 c-18 -18 -49 -82 -86 -178 -32 -82 -73 -181 -91 -219 -43
-89 -44 -132 -4 -208 17 -32 52 -115 79 -185 26 -70 55 -144 63 -164 31 -73
107 -101 160 -59 14 11 37 48 51 82 91 219 157 399 157 425 0 26 -147 421
-179 481 -31 57 -105 70 -150 25z"/>
<path d="M4176 4719 c-67 -52 -69 -116 -10 -240 67 -140 222 -261 384 -300 71
-17 200 -17 270 0 80 20 166 62 238 115 l62 48 63 -48 c115 -87 235 -128 372
-128 101 1 171 17 261 60 126 62 225 169 273 297 27 74 27 116 -2 158 -64 96
-169 73 -215 -48 -43 -114 -134 -189 -258 -213 -151 -30 -304 52 -380 201 -39
78 -64 99 -115 99 -50 0 -83 -29 -119 -105 -68 -142 -229 -225 -377 -195 -123
25 -202 91 -259 216 -24 53 -41 77 -63 88 -42 22 -93 20 -125 -5z"/>
<path d="M4182 3860 c-73 -45 -78 -121 -16 -251 65 -135 224 -262 374 -297
184 -44 381 -1 524 115 l50 40 50 -39 c110 -87 233 -131 371 -132 109 -1 176
14 275 62 174 84 328 311 290 428 -16 47 -63 84 -108 84 -59 0 -97 -30 -121
-95 -59 -158 -190 -245 -347 -232 -128 10 -232 83 -289 203 -39 82 -63 104
-116 104 -50 0 -83 -29 -118 -104 -35 -73 -109 -147 -179 -179 -38 -18 -65
-22 -137 -22 -77 1 -98 5 -146 28 -74 36 -131 99 -174 192 -49 108 -109 140
-183 95z"/>
</g>
</svg>
